#!OML:ASF F:\VICON\USERDATA\INSTALL\Justin_Nancy\Justin_Nancy.ASF
:FULLY-SPECIFIED
:DEGREES
179
root 0.877128 17.2152 -17.3522 4.49733 -1.72129 7.40234
lowerback 6.86198 -1.06706 -7.53807
upperback 0.854777 -1.97519 0.253889
thorax -2.6991 -0.905691 4.67631
lowerneck -14.9194 -4.17666 -10.3176
upperneck 20.5141 -4.80604 6.69764
head 9.34111 -2.33789 3.42715
rclavicle -3.00165e-014 -7.15625e-015
rhumerus -28.8849 -7.37928 -82.5177
rradius 37.8097
rwrist 3.84455
rhand -15.3028 12.7851
rfingers 7.12502
rthumb 10.8727 -16.9134
lclavicle -3.00165e-014 -7.15625e-015
lhumerus -22.4187 0.944546 82.9288
lradius 31.7746
lwrist -8.81411
lhand -11.3079 26.0882
lfingers 7.12502
lthumb 14.7238 55.5453
rfemur -37.095 -2.04181 14.4358
rtibia 31.8565
rfoot -7.65192 -10.7331
rtoes -2.51866
lfemur -0.225956 -0.537099 -31.9478
ltibia 22.0697
lfoot -19.3242 2.24749
ltoes -0.675883
180
root 0.859932 17.2083 -17.1901 4.5694 -1.67125 7.42849
lowerback 6.91174 -1.15943 -7.6631
upperback 0.728011 -2.11571 0.300613
thorax -2.83406 -0.964932 4.81131
lowerneck -15.0689 -4.15552 -10.1195
upperneck 20.7132 -4.79401 6.58668
head 9.42873 -2.32801 3.35803
rclavicle 1.00386e-014 -2.14687e-014
rhumerus -28.9163 -7.65098 -82.3755
rradius 37.3653
rwrist 4.04624
rhand -15.632 12.7466
rfingers 7.12502
rthumb 10.5551 -16.9683
lclavicle 1.00386e-014 -2.14687e-014
lhumerus -22.3734 0.775967 82.9196
lradius 31.8755
lwrist -8.73408
lhand -11.1976 26.0476
lfingers 7.12502
lthumb 14.8302 55.4969
rfemur -36.8837 -1.47364 14.1249
rtibia 29.1184
rfoot -7.59462 -10.2794
rtoes -2.236
lfemur 0.672164 -0.516131 -31.89
ltibia 21.421
lfoot -19.2175 2.03749
ltoes -1.79751
181
root 0.84567 17.1954 -17.0214 4.56821 -1.6911 7.58579
lowerback 6.84059 -1.20571 -7.82975
upperback 0.691199 -2.18661 0.257884
thorax -2.8184 -0.998069 4.86435
lowerneck -15.0374 -4.15723 -9.88067
upperneck 20.78 -4.8466 6.51447
head 9.44223 -2.34276 3.28702
rclavicle 2.88238e-014 1.11319e-014
rhumerus -29.1054 -8.08834 -82.2286
rradius 37.1917
rwrist 4.21974
rhand -15.5035 13.137
rfingers 7.12502
rthumb 10.6791 -16.5716
lclavicle 2.88238e-014 1.11319e-014
lhumerus -22.3086 0.679998 82.9009
lradius 31.8625
lwrist -8.79056
lhand -11.6321 25.625
lfingers 7.12502
lthumb 14.4115 55.1047
rfemur -36.5214 -0.846969 13.6197
rtibia 26.443
rfoot -7.4803 -9.84505
rtoes -3.09299
lfemur 1.65037 -0.415223 -31.9853
ltibia 20.8211
lfoot -19.1019 1.80382
ltoes -3.29859
182
root 0.833007 17.1803 -16.8503 4.64247 -1.7248 7.75071
lowerback 6.67735 -1.24466 -7.96104
upperback 0.692339 -2.2349 0.212316
thorax -2.71582 -1.02521 4.88834
lowerneck -15.1414 -4.27151 -9.90649
upperneck 20.8705 -5.0245 6.64194
head 9.51368 -2.41275 3.31258
rclavicle -5.26779e-015 1.43125e-014
rhumerus -29.282 -8.44708 -82.0627
rradius 37.1516
rwrist 4.30275
rhand -15.153 13.3789
rfingers 7.12502
rthumb 11.0172 -16.312
lclavicle -5.26779e-015 1.43125e-014
lhumerus -21.9325 0.725393 82.8543
lradius 31.5579
lwrist -8.94169
lhand -11.6124 25.2943
lfingers 7.12502
lthumb 14.4304 54.7726
rfemur -36.2161 -0.170181 13.0741
rtibia 23.8839
rfoot -7.17587 -9.44724
rtoes -5.47517
lfemur 2.5418 -0.259502 -32.0793
ltibia 20.2389
lfoot -18.9287 1.57955
ltoes -4.43912
183
root 0.817859 17.1679 -16.6818 4.80741 -1.77532 7.73555
lowerback 6.53509 -1.35349 -8.03256
upperback 0.632201 -2.37132 0.321746
thorax -2.67193 -1.09207 5.04968
lowerneck -15.4207 -4.30743 -10.1082
upperneck 21.1092 -5.03691 6.76967
head 9.66023 -2.41772 3.39028
rclavicle -9.83984e-015 -2.70347e-014
rhumerus -29.2382 -8.6141 -81.885
rradius 36.868
rwrist 4.47384
rhand -14.8937 13.1349
rfingers 7.12502
rthumb 11.2673 -16.5425
lclavicle -9.83984e-015 -2.70347e-014
lhumerus -21.6237 0.920468 82.8476
lradius 31.3469
lwrist -9.01256
lhand -11.4982 25.0606
lfingers 7.12502
lthumb 14.5405 54.531
rfemur -36.0099 0.748536 12.6236
rtibia 21.4649
rfoot -7.06701 -9.22754
rtoes -6.05202
lfemur 3.26855 -0.0522332 -31.9746
ltibia 19.6636
lfoot -18.6774 1.4923
ltoes -6.73591
184
root 0.800446 17.16 -16.5103 4.89289 -1.83147 7.81853
lowerback 6.35774 -1.42055 -8.15016
upperback 0.642678 -2.45246 0.31126
thorax -2.54533 -1.13713 5.10355
lowerneck -15.408 -4.30902 -10.0316
upperneck 21.036 -5.07477 6.84103
head 9.63495 -2.42121 3.39669
rclavicle 2.55438e-014 -7.95139e-016
rhumerus -29.1235 -8.94289 -81.8483
rradius 36.4654
rwrist 4.63737
rhand -14.9931 12.6969
rfingers 7.12502
rthumb 11.1714 -16.9857
lclavicle 2.55438e-014 -7.95139e-016
lhumerus -21.4608 0.829985 82.8016
lradius 31.4605
lwrist -9.12484
lhand -11.5315 25.5142
lfingers 7.12502
lthumb 14.5084 54.9869
rfemur -35.6453 1.61955 12.0594
rtibia 19.1425
rfoot -7.09842 -8.92534
rtoes -4.47077
lfemur 3.92188 0.107189 -31.9556
ltibia 19.1727
lfoot -18.3247 1.22014
ltoes -7.62743
185
root 0.7866 17.1571 -16.3367 4.81708 -1.8759 7.82468
lowerback 6.38032 -1.46453 -8.08693
upperback 0.627616 -2.51008 0.284864
thorax -2.56915 -1.16506 5.04567
lowerneck -15.147 -4.29513 -9.97566
upperneck 20.82 -5.1039 6.91286
head 9.51307 -2.42616 3.40836
rclavicle -1.11319e-014 2.06736e-014
rhumerus -29.2442 -9.24138 -81.744
rradius 36.0138
rwrist 4.77794
rhand -15.3594 12.6503
rfingers 7.12502
rthumb 10.8181 -17.0511
lclavicle -1.11319e-014 2.06736e-014
lhumerus -21.6502 0.713353 82.7396
lradius 31.7069
lwrist -9.16737
lhand -11.5991 26.1522
lfingers 7.12502
lthumb 14.4433 55.6296
rfemur -35.0636 2.2821 11.7094
rtibia 16.979
rfoot -6.99151 -8.61464
rtoes -4.5694
lfemur 4.71282 -0.0154079 -31.894
ltibia 18.7664
lfoot -17.8915 0.873594
ltoes -7.19918
186
root 0.773331 17.1526 -16.1603 4.79374 -2.04156 7.71318
lowerback 6.25218 -1.45899 -7.92809
upperback 0.687897 -2.47739 0.283524
thorax -2.44581 -1.15756 4.94601
lowerneck -15.1811 -4.29289 -9.83546
upperneck 20.7234 -5.14068 6.96313
head 9.48594 -2.42551 3.39602
rclavicle -1.31198e-014 1.98785e-014
rhumerus -29.3855 -9.56378 -81.6149
rradius 35.6896
rwrist 4.90794
rhand -15.5558 12.7103
rfingers 7.12502
rthumb 10.6287 -17.0009
lclavicle -1.31198e-014 1.98785e-014
lhumerus -21.5217 0.717888 82.658
lradius 31.6993
lwrist -9.28517
lhand -11.4671 26.6233
lfingers 7.12502
lthumb 14.5705 56.0916
rfemur -34.5789 2.82027 11.6459
rtibia 15.0848
rfoot -6.67358 -8.37154
rtoes -5.65569
lfemur 5.54015 -0.0441974 -31.7472
ltibia 18.4071
lfoot -17.5347 0.742201
ltoes -8.51501
187
root 0.759238 17.14 -15.984 4.81559 -2.2536 7.79938
lowerback 6.12062 -1.45016 -8.01061
upperback 0.752402 -2.45699 0.263817
thorax -2.30506 -1.15469 4.96361
lowerneck -15.4928 -4.30044 -9.85051
upperneck 20.823 -5.17108 7.16906
head 9.58741 -2.41316 3.46567
rclavicle 2.82274e-014 3.97569e-015
rhumerus -29.425 -9.89996 -81.4642
rradius 35.4128
rwrist 5.06988
rhand -15.3649 12.6859
rfingers 7.12502
rthumb 10.8128 -17.0157
lclavicle 2.82274e-014 3.97569e-015
lhumerus -21.1083 0.740579 82.6537
lradius 31.5022
lwrist -9.1351
lhand -11.5388 26.9968
lfingers 7.12502
lthumb 14.5014 56.47
rfemur -34.1918 3.03643 11.5346
rtibia 13.4758
rfoot -6.11663 -7.8522
rtoes -6.6096
lfemur 6.26947 0.137495 -31.8051
ltibia 18.1415
lfoot -17.2683 0.628512
ltoes -10.2112
188
root 0.744513 17.1259 -15.8046 4.74856 -2.40151 7.84449
lowerback 6.20495 -1.46603 -8.05576
upperback 0.633011 -2.49333 0.300641
thorax -2.46823 -1.16165 5.03629
lowerneck -15.3413 -4.28692 -9.96266
upperneck 20.8415 -5.15985 7.2507
head 9.56996 -2.41154 3.51671
rclavicle -6.95746e-016 1.90833e-014
rhumerus -29.827 -10.0114 -81.2056
rradius 35.1747
rwrist 5.06543
rhand -15.0187 12.7508
rfingers 7.12502
rthumb 11.1467 -16.9332
lclavicle -6.95746e-016 1.90833e-014
lhumerus -21.0961 0.853731 82.7096
lradius 31.2613
lwrist -8.97714
lhand -11.5832 26.7877
lfingers 7.12502
lthumb 14.4586 56.264
rfemur -33.8368 3.08464 11.574
rtibia 12.3822
rfoot -5.67225 -7.34789
rtoes -8.03788
lfemur 7.08631 0.159413 -31.831
ltibia 17.926
lfoot -17.0767 0.572906
ltoes -10.6528
189
root 0.731227 17.1142 -15.6187 4.58872 -2.38411 7.73361
lowerback 6.2477 -1.50587 -7.89146
upperback 0.684344 -2.53489 0.363024
thorax -2.43669 -1.18668 5.01254
lowerneck -15.4523 -4.39267 -9.97066
upperneck 20.8787 -5.29368 7.23579
head 9.61697 -2.47391 3.49382
rclavicle -9.83984e-015 -9.54166e-015
rhumerus -30.0836 -10.2026 -80.998
rradius 34.9919
rwrist 4.94595
rhand -14.9375 12.7555
rfingers 7.12502
rthumb 11.225 -16.9241
lclavicle -9.83984e-015 -9.54166e-015
lhumerus -21.0685 0.92843 82.786
lradius 31.1654
lwrist -9.06465
lhand -11.3434 26.3416
lfingers 7.12502
lthumb 14.6897 55.8012
rfemur -33.5074 2.99671 11.8462
rtibia 11.9735
rfoot -5.71421 -6.89857
rtoes -8.86143
lfemur 8.04996 0.00516131 -31.6839
ltibia 17.7496
lfoot -16.8335 0.452194
ltoes -11.3394
190
root 0.716515 17.1073 -15.4334 4.54986 -2.32573 7.66734
lowerback 6.15423 -1.56154 -7.75018
upperback 0.793516 -2.58618 0.369539
thorax -2.2689 -1.22383 4.93675
lowerneck -15.7574 -4.47381 -9.89133
upperneck 20.9517 -5.4206 7.31371
head 9.71178 -2.51206 3.48863
rclavicle -2.42517e-014 -1.27222e-014
rhumerus -30.2215 -10.5189 -80.8475
rradius 34.8279
rwrist 4.79048
rhand -14.8609 12.8212
rfingers 7.12502
rthumb 11.2989 -16.8544
lclavicle -2.42517e-014 -1.27222e-014
lhumerus -21.0653 0.881171 82.8044
lradius 31.3314
lwrist -9.10625
lhand -11.1784 26.1021
lfingers 7.12502
lthumb 14.8486 55.5501
rfemur -33.391 2.80514 12.1041
rtibia 12.0651
rfoot -5.86818 -6.30105
rtoes -8.93065
lfemur 8.78125 -0.185074 -31.5545
ltibia 17.6825
lfoot -16.3668 0.252867
ltoes -11.806
191
root 0.700173 17.1002 -15.25 4.62274 -2.24579 7.7056
lowerback 6.1182 -1.61073 -7.71772
upperback 0.749428 -2.64884 0.345898
thorax -2.28847 -1.25326 4.89753
lowerneck -15.8801 -4.43828 -9.69066
upperneck 20.9651 -5.40752 7.29268
head 9.73104 -2.48983 3.44836
rclavicle 2.76311e-014 1.35174e-014
rhumerus -30.5475 -10.7966 -80.6535
rradius 34.6896
rwrist 4.66357
rhand -14.4688 12.8895
rfingers 7.12502
rthumb 11.6771 -16.7651
lclavicle 2.76311e-014 1.35174e-014
lhumerus -21.2207 0.834665 82.8173
lradius 31.4681
lwrist -9.12665
lhand -11.278 26.5932
lfingers 7.12502
lthumb 14.7527 56.0482
rfemur -33.5683 2.56499 12.2623
rtibia 12.6825
rfoot -5.87888 -5.7626
rtoes -8.29874
lfemur 9.32356 -0.261309 -31.4927
ltibia 17.6802
lfoot -15.8378 -0.130448
ltoes -12.8592
192
root 0.679327 17.0941 -15.0651 4.6083 -2.14781 7.64267
lowerback 6.18598 -1.66279 -7.65737
upperback 0.679214 -2.72153 0.396747
thorax -2.38976 -1.28361 4.92638
lowerneck -15.8062 -4.46759 -9.65231
upperneck 20.9108 -5.47362 7.33405
head 9.70435 -2.5143 3.44739
rclavicle 2.62396e-014 3.65764e-014
rhumerus -30.8532 -11.0389 -80.4226
rradius 34.3614
rwrist 4.65944
rhand -14.3162 12.6546
rfingers 7.12502
rthumb 11.8242 -16.9915
lclavicle 2.62396e-014 3.65764e-014
lhumerus -21.3538 0.887084 82.8599
lradius 31.4036
lwrist -9.34552
lhand -11.3695 26.9364
lfingers 7.12502
lthumb 14.6645 56.3978
rfemur -33.8819 2.37146 12.5505
rtibia 13.9064
rfoot -5.98765 -5.43909
rtoes -7.3112
lfemur 10.0303 -0.456983 -31.3345
ltibia 17.5942
lfoot -15.2825 -0.653964
ltoes -13.4371
193
root 0.655007 17.0923 -14.8771 4.5539 -1.94898 7.62236
lowerback 6.15867 -1.78112 -7.7043
upperback 0.692354 -2.87683 0.482831
thorax -2.3321 -1.36317 5.05152
lowerneck -15.6696 -4.49026 -9.77541
upperneck 20.7878 -5.51622 7.48288
head 9.64782 -2.53019 3.51454
rclavicle -2.127e-014 1.19271e-014
rhumerus -30.8555 -11.4904 -80.1076
rradius 33.608
rwrist 4.86455
rhand -14.4785 12.4229
rfingers 7.12502
rthumb 11.6677 -17.2322
lclavicle -2.127e-014 1.19271e-014
lhumerus -21.3866 1.14598 82.9321
lradius 31.2245
lwrist -9.48591
lhand -11.517 26.8582
lfingers 7.12502
lthumb 14.5224 56.3299
rfemur -34.1748 2.30831 12.7059
rtibia 15.4425
rfoot -5.97233 -5.49752
rtoes -7.76679
lfemur 10.7505 -0.784694 -31.2116
ltibia 17.4986
lfoot -14.6009 -1.10172
ltoes -13.7897
